<svg xmlns="http://www.w3.org/2000/svg" width="21.667" height="21.668" viewBox="0 0 21.667 21.668">
  <g id="logout" transform="translate(-0.014)">
    <g id="Group_19" data-name="Group 19" transform="translate(0.014)">
      <g id="Group_18" data-name="Group 18">
        <path id="Path_7" data-name="Path 7" d="M307.639,152.6a.913.913,0,0,0-.2-.294l-2.708-2.708a.9.9,0,1,0-1.277,1.277l1.167,1.167h-5.043a.9.9,0,0,0,0,1.806h5.043l-1.167,1.167a.9.9,0,1,0,1.277,1.277l2.708-2.708a.894.894,0,0,0,.2-.294A.9.9,0,0,0,307.639,152.6Z" transform="translate(-286.041 -143.019)" fill="#fff"/>
        <path id="Path_8" data-name="Path 8" d="M15.362,12.64a.9.9,0,0,0-.9.9v4.514H10.848V3.611a.9.9,0,0,0-.644-.865L7.069,1.806h7.391V6.32a.9.9,0,1,0,1.806,0V.9a.9.9,0,0,0-.9-.9H.917A.8.8,0,0,0,.824.017.892.892,0,0,0,.441.151C.421.163.4.164.378.179S.368.194.361.2a.894.894,0,0,0-.24.285A.737.737,0,0,0,.1.561.856.856,0,0,0,.024.772a.562.562,0,0,0,0,.079C.026.869.014.885.014.9V18.959a.9.9,0,0,0,.726.885L9.768,21.65a.84.84,0,0,0,.177.018.9.9,0,0,0,.9-.9v-.9h4.514a.9.9,0,0,0,.9-.9V13.542A.9.9,0,0,0,15.362,12.64Z" transform="translate(-0.014)" fill="#fff"/>
      </g>
    </g>
  </g>
</svg>
