<svg xmlns="http://www.w3.org/2000/svg" width="27" height="27" viewBox="0 0 27 27">
  <g id="pencil" transform="translate(-0.001)">
    <g id="Group_12" data-name="Group 12" transform="translate(0.001)">
      <path id="Path_5" data-name="Path 5" d="M13.5,0A13.5,13.5,0,1,0,27,13.5,13.5,13.5,0,0,0,13.5,0Zm6.418,9.715L18.636,11l-2.61-2.61-.99.99,2.61,2.61-6.4,6.4-2.61-2.61-.99.99,2.61,2.61-.638.638L9.6,20.005a.505.505,0,0,1-.322.232l-2.434.543a.506.506,0,0,1-.6-.6l.542-2.433a.507.507,0,0,1,.232-.322l-.012-.012,10.3-10.3a.387.387,0,0,1,.547,0l2.063,2.063A.387.387,0,0,1,19.918,9.715Z" transform="translate(-0.001)" fill="#7245a5"/>
    </g>
  </g>
</svg>
